solid OpenSCAD_Model
  facet normal -0.92388 -0.382683 0
    outer loop
      vertex 45.0051 2.40585 14
      vertex 45.3878 1.48197 14
      vertex 45.0051 2.40585 16.5
    endloop
  endfacet
  facet normal -0.92388 -0.382683 0
    outer loop
      vertex 33.5246 30.1222 9
      vertex 33.1419 31.0461 11
      vertex 33.1419 31.0461 9
    endloop
  endfacet
  facet normal -0.92388 -0.382683 0
    outer loop
      vertex 33.1419 31.0461 11
      vertex 33.5246 30.1222 9
      vertex 33.5246 30.1222 11
    endloop
  endfacet
  facet normal -0.92388 -0.382683 0
    outer loop
      vertex 33.5246 30.1222 4
      vertex 33.1419 31.0461 6
      vertex 33.1419 31.0461 4
    endloop
  endfacet
  facet normal -0.92388 -0.382683 0
    outer loop
      vertex 33.1419 31.0461 6
      vertex 33.5246 30.1222 4
      vertex 33.5246 30.1222 6
    endloop
  endfacet
  facet normal -0.92388 -0.382683 0
    outer loop
      vertex 33.5246 30.1222 -1
      vertex 33.1419 31.0461 1
      vertex 33.1419 31.0461 -1
    endloop
  endfacet
  facet normal -0.92388 -0.382683 0
    outer loop
      vertex 33.1419 31.0461 1
      vertex 33.5246 30.1222 -1
      vertex 33.5246 30.1222 1
    endloop
  endfacet
  facet normal -0.92388 -0.382683 0
    outer loop
      vertex 33.5246 30.1222 -6
      vertex 33.1419 31.0461 -4
      vertex 33.1419 31.0461 -6
    endloop
  endfacet
  facet normal -0.92388 -0.382683 0
    outer loop
      vertex 33.1419 31.0461 -4
      vertex 33.5246 30.1222 -6
      vertex 33.5246 30.1222 -4
    endloop
  endfacet
  facet normal -0.92388 -0.382683 0
    outer loop
      vertex 33.5246 30.1222 -11
      vertex 33.1419 31.0461 -9
      vertex 33.1419 31.0461 -11
    endloop
  endfacet
  facet normal -0.92388 -0.382683 0
    outer loop
      vertex 33.1419 31.0461 -9
      vertex 33.5246 30.1222 -11
      vertex 33.5246 30.1222 -9
    endloop
  endfacet
  facet normal -0.92388 -0.382683 -0
    outer loop
      vertex 33.1419 31.0461 -11
      vertex 32.4703 32.6676 -20
      vertex 33.1419 31.0461 -14
    endloop
  endfacet
  facet normal -0.92388 -0.382683 -2.75005e-007
    outer loop
      vertex 32.4703 32.6676 -20
      vertex 45.3878 1.48197 -14
      vertex 33.1419 31.0461 -14
    endloop
  endfacet
  facet normal -0.923879 -0.382684 0
    outer loop
      vertex 46.0595 -0.139519 -20
      vertex 45.3878 1.48197 -11
      vertex 45.3878 1.48197 -14
    endloop
  endfacet
  facet normal -0.923879 -0.382684 0
    outer loop
      vertex 45.3878 1.48197 -11
      vertex 46.0595 -0.139519 -20
      vertex 45.3878 1.48197 -9
    endloop
  endfacet
  facet normal -0.923879 -0.382684 0
    outer loop
      vertex 45.3878 1.48197 -9
      vertex 46.0595 -0.139519 -20
      vertex 45.3878 1.48197 -6
    endloop
  endfacet
  facet normal -0.923879 -0.382684 0
    outer loop
      vertex 45.3878 1.48197 -6
      vertex 46.0595 -0.139519 -20
      vertex 45.3878 1.48197 -4
    endloop
  endfacet
  facet normal -0.923879 -0.382684 0
    outer loop
      vertex 45.3878 1.48197 -4
      vertex 46.0595 -0.139519 -20
      vertex 45.3878 1.48197 -1
    endloop
  endfacet
  facet normal -0.923879 -0.382684 0
    outer loop
      vertex 45.3878 1.48197 -1
      vertex 46.0595 -0.139519 -20
      vertex 45.3878 1.48197 1
    endloop
  endfacet
  facet normal -0.923879 -0.382684 -0
    outer loop
      vertex 46.0595 -0.139519 20
      vertex 45.3878 1.48197 1
      vertex 46.0595 -0.139519 -20
    endloop
  endfacet
  facet normal -0.923879 -0.382684 0
    outer loop
      vertex 45.3878 1.48197 1
      vertex 46.0595 -0.139519 20
      vertex 45.3878 1.48197 4
    endloop
  endfacet
  facet normal -0.923879 -0.382684 0
    outer loop
      vertex 45.3878 1.48197 4
      vertex 46.0595 -0.139519 20
      vertex 45.3878 1.48197 6
    endloop
  endfacet
  facet normal -0.923879 -0.382684 0
    outer loop
      vertex 45.3878 1.48197 6
      vertex 46.0595 -0.139519 20
      vertex 45.3878 1.48197 9
    endloop
  endfacet
  facet normal -0.923879 -0.382684 0
    outer loop
      vertex 45.3878 1.48197 9
      vertex 46.0595 -0.139519 20
      vertex 45.3878 1.48197 11
    endloop
  endfacet
  facet normal -0.92388 -0.382683 -3.15052e-007
    outer loop
      vertex 46.0595 -0.139519 -20
      vertex 45.3878 1.48197 -14
      vertex 32.4703 32.6676 -20
    endloop
  endfacet
  facet normal -0.92388 -0.382683 -0
    outer loop
      vertex 33.1419 31.0461 -9
      vertex 32.4703 32.6676 -20
      vertex 33.1419 31.0461 -11
    endloop
  endfacet
  facet normal -0.92388 -0.382683 -0
    outer loop
      vertex 33.1419 31.0461 -6
      vertex 32.4703 32.6676 -20
      vertex 33.1419 31.0461 -9
    endloop
  endfacet
  facet normal -0.92388 -0.382683 -0
    outer loop
      vertex 33.1419 31.0461 -4
      vertex 32.4703 32.6676 -20
      vertex 33.1419 31.0461 -6
    endloop
  endfacet
  facet normal -0.92388 -0.382683 -0
    outer loop
      vertex 33.1419 31.0461 -1
      vertex 32.4703 32.6676 -20
      vertex 33.1419 31.0461 -4
    endloop
  endfacet
  facet normal -0.92388 -0.382683 0
    outer loop
      vertex 32.4703 32.6676 -20
      vertex 33.1419 31.0461 -1
      vertex 32.4703 32.6676 20
    endloop
  endfacet
  facet normal -0.92388 -0.382683 -0
    outer loop
      vertex 33.1419 31.0461 1
      vertex 32.4703 32.6676 20
      vertex 33.1419 31.0461 -1
    endloop
  endfacet
  facet normal -0.92388 -0.382683 -0
    outer loop
      vertex 33.1419 31.0461 4
      vertex 32.4703 32.6676 20
      vertex 33.1419 31.0461 1
    endloop
  endfacet
  facet normal -0.92388 -0.382683 -0
    outer loop
      vertex 33.1419 31.0461 6
      vertex 32.4703 32.6676 20
      vertex 33.1419 31.0461 4
    endloop
  endfacet
  facet normal -0.92388 -0.382683 -0
    outer loop
      vertex 33.1419 31.0461 9
      vertex 32.4703 32.6676 20
      vertex 33.1419 31.0461 6
    endloop
  endfacet
  facet normal -0.92388 -0.382683 -0
    outer loop
      vertex 33.1419 31.0461 11
      vertex 32.4703 32.6676 20
      vertex 33.1419 31.0461 9
    endloop
  endfacet
  facet normal -0.92388 -0.382683 -0
    outer loop
      vertex 33.1419 31.0461 14
      vertex 32.4703 32.6676 20
      vertex 33.1419 31.0461 11
    endloop
  endfacet
  facet normal -0.92388 -0.382683 -0
    outer loop
      vertex 33.5246 30.1222 16.5
      vertex 33.1419 31.0461 14
      vertex 33.5246 30.1222 14
    endloop
  endfacet
  facet normal -0.92388 -0.382683 5.85769e-008
    outer loop
      vertex 33.1419 31.0461 14
      vertex 33.5246 30.1222 16.5
      vertex 32.4703 32.6676 20
    endloop
  endfacet
  facet normal -0.92388 -0.382683 6.6974e-007
    outer loop
      vertex 45.0051 2.40585 16.5
      vertex 32.4703 32.6676 20
      vertex 33.5246 30.1222 16.5
    endloop
  endfacet
  facet normal -0.92388 -0.382683 3.94568e-007
    outer loop
      vertex 45.0051 2.40585 16.5
      vertex 46.0595 -0.139519 20
      vertex 32.4703 32.6676 20
    endloop
  endfacet
  facet normal -0.923879 -0.382684 2.6803e-007
    outer loop
      vertex 45.3878 1.48197 14
      vertex 46.0595 -0.139519 20
      vertex 45.0051 2.40585 16.5
    endloop
  endfacet
  facet normal -0.923879 -0.382684 0
    outer loop
      vertex 45.3878 1.48197 11
      vertex 46.0595 -0.139519 20
      vertex 45.3878 1.48197 14
    endloop
  endfacet
  facet normal -0.92388 -0.382683 0
    outer loop
      vertex 45.3878 1.48197 -11
      vertex 45.0051 2.40585 -9
      vertex 45.0051 2.40585 -11
    endloop
  endfacet
  facet normal -0.92388 -0.382683 0
    outer loop
      vertex 45.0051 2.40585 -9
      vertex 45.3878 1.48197 -11
      vertex 45.3878 1.48197 -9
    endloop
  endfacet
  facet normal -0.92388 -0.382683 0
    outer loop
      vertex 45.3878 1.48197 -6
      vertex 45.0051 2.40585 -4
      vertex 45.0051 2.40585 -6
    endloop
  endfacet
  facet normal -0.92388 -0.382683 0
    outer loop
      vertex 45.0051 2.40585 -4
      vertex 45.3878 1.48197 -6
      vertex 45.3878 1.48197 -4
    endloop
  endfacet
  facet normal -0.92388 -0.382683 0
    outer loop
      vertex 45.3878 1.48197 -1
      vertex 45.0051 2.40585 1
      vertex 45.0051 2.40585 -1
    endloop
  endfacet
  facet normal -0.92388 -0.382683 0
    outer loop
      vertex 45.0051 2.40585 1
      vertex 45.3878 1.48197 -1
      vertex 45.3878 1.48197 1
    endloop
  endfacet
  facet normal -0.92388 -0.382683 0
    outer loop
      vertex 45.3878 1.48197 4
      vertex 45.0051 2.40585 6
      vertex 45.0051 2.40585 4
    endloop
  endfacet
  facet normal -0.92388 -0.382683 0
    outer loop
      vertex 45.0051 2.40585 6
      vertex 45.3878 1.48197 4
      vertex 45.3878 1.48197 6
    endloop
  endfacet
  facet normal -0.92388 -0.382683 0
    outer loop
      vertex 45.3878 1.48197 9
      vertex 45.0051 2.40585 11
      vertex 45.0051 2.40585 9
    endloop
  endfacet
  facet normal -0.92388 -0.382683 0
    outer loop
      vertex 45.0051 2.40585 11
      vertex 45.3878 1.48197 9
      vertex 45.3878 1.48197 11
    endloop
  endfacet
  facet normal 0 0 1
    outer loop
      vertex 34.7664 34.9637 20
      vertex 46.0595 -0.139519 20
      vertex 49.3066 -0.139519 20
    endloop
  endfacet
  facet normal 0 0 1
    outer loop
      vertex 46.0595 -0.139519 20
      vertex 34.7664 34.9637 20
      vertex 32.4703 32.6676 20
    endloop
  endfacet
  facet normal 0.92388 0.382683 0
    outer loop
      vertex 36.2963 31.2703 -9
      vertex 35.9136 32.1942 -11
      vertex 35.9136 32.1942 -9
    endloop
  endfacet
  facet normal 0.92388 0.382683 0
    outer loop
      vertex 35.9136 32.1942 -11
      vertex 36.2963 31.2703 -9
      vertex 36.2963 31.2703 -11
    endloop
  endfacet
  facet normal 0.92388 0.382683 0
    outer loop
      vertex 36.2963 31.2703 -4
      vertex 35.9136 32.1942 -6
      vertex 35.9136 32.1942 -4
    endloop
  endfacet
  facet normal 0.92388 0.382683 0
    outer loop
      vertex 35.9136 32.1942 -6
      vertex 36.2963 31.2703 -4
      vertex 36.2963 31.2703 -6
    endloop
  endfacet
  facet normal 0.92388 0.382683 0
    outer loop
      vertex 36.2963 31.2703 1
      vertex 35.9136 32.1942 -1
      vertex 35.9136 32.1942 1
    endloop
  endfacet
  facet normal 0.92388 0.382683 0
    outer loop
      vertex 35.9136 32.1942 -1
      vertex 36.2963 31.2703 1
      vertex 36.2963 31.2703 -1
    endloop
  endfacet
  facet normal 0.92388 0.382683 0
    outer loop
      vertex 36.2963 31.2703 6
      vertex 35.9136 32.1942 4
      vertex 35.9136 32.1942 6
    endloop
  endfacet
  facet normal 0.92388 0.382683 0
    outer loop
      vertex 35.9136 32.1942 4
      vertex 36.2963 31.2703 6
      vertex 36.2963 31.2703 4
    endloop
  endfacet
  facet normal 0.92388 0.382683 0
    outer loop
      vertex 36.2963 31.2703 11
      vertex 35.9136 32.1942 9
      vertex 35.9136 32.1942 11
    endloop
  endfacet
  facet normal 0.92388 0.382683 0
    outer loop
      vertex 35.9136 32.1942 9
      vertex 36.2963 31.2703 11
      vertex 36.2963 31.2703 9
    endloop
  endfacet
  facet normal 0.923879 0.382684 -0
    outer loop
      vertex 35.9136 32.1942 11
      vertex 34.7664 34.9637 20
      vertex 35.9136 32.1942 14
    endloop
  endfacet
  facet normal 0.92388 0.382683 1.59302e-007
    outer loop
      vertex 34.7664 34.9637 20
      vertex 36.2963 31.2703 16.5
      vertex 35.9136 32.1942 14
    endloop
  endfacet
  facet normal 0.92388 0.382683 -1.05359e-007
    outer loop
      vertex 34.7664 34.9637 20
      vertex 47.7768 3.5539 16.5
      vertex 36.2963 31.2703 16.5
    endloop
  endfacet
  facet normal 0.92388 0.382683 0
    outer loop
      vertex 47.7768 3.5539 16.5
      vertex 48.1595 2.63002 14
      vertex 47.7768 3.5539 14
    endloop
  endfacet
  facet normal 0.92388 0.382684 0
    outer loop
      vertex 49.3066 -0.139519 20
      vertex 48.1595 2.63002 11
      vertex 48.1595 2.63002 14
    endloop
  endfacet
  facet normal 0.92388 0.382684 0
    outer loop
      vertex 48.1595 2.63002 11
      vertex 49.3066 -0.139519 20
      vertex 48.1595 2.63002 9
    endloop
  endfacet
  facet normal 0.92388 0.382684 0
    outer loop
      vertex 48.1595 2.63002 9
      vertex 49.3066 -0.139519 20
      vertex 48.1595 2.63002 6
    endloop
  endfacet
  facet normal 0.92388 0.382684 0
    outer loop
      vertex 48.1595 2.63002 6
      vertex 49.3066 -0.139519 20
      vertex 48.1595 2.63002 4
    endloop
  endfacet
  facet normal 0.92388 0.382684 0
    outer loop
      vertex 48.1595 2.63002 4
      vertex 49.3066 -0.139519 20
      vertex 48.1595 2.63002 1
    endloop
  endfacet
  facet normal 0.92388 0.382684 0
    outer loop
      vertex 48.1595 2.63002 1
      vertex 49.3066 -0.139519 20
      vertex 48.1595 2.63002 -1
    endloop
  endfacet
  facet normal 0.92388 0.382684 -0
    outer loop
      vertex 49.3066 -0.139519 -20
      vertex 48.1595 2.63002 -1
      vertex 49.3066 -0.139519 20
    endloop
  endfacet
  facet normal 0.92388 0.382684 0
    outer loop
      vertex 48.1595 2.63002 -1
      vertex 49.3066 -0.139519 -20
      vertex 48.1595 2.63002 -4
    endloop
  endfacet
  facet normal 0.92388 0.382684 0
    outer loop
      vertex 48.1595 2.63002 -4
      vertex 49.3066 -0.139519 -20
      vertex 48.1595 2.63002 -6
    endloop
  endfacet
  facet normal 0.92388 0.382684 0
    outer loop
      vertex 48.1595 2.63002 -6
      vertex 49.3066 -0.139519 -20
      vertex 48.1595 2.63002 -9
    endloop
  endfacet
  facet normal 0.92388 0.382684 0
    outer loop
      vertex 48.1595 2.63002 -9
      vertex 49.3066 -0.139519 -20
      vertex 48.1595 2.63002 -11
    endloop
  endfacet
  facet normal 0.92388 0.382683 -1.34808e-007
    outer loop
      vertex 47.7768 3.5539 16.5
      vertex 49.3066 -0.139519 20
      vertex 48.1595 2.63002 14
    endloop
  endfacet
  facet normal 0.92388 0.382683 7.4441e-008
    outer loop
      vertex 49.3066 -0.139519 20
      vertex 47.7768 3.5539 16.5
      vertex 34.7664 34.9637 20
    endloop
  endfacet
  facet normal 0.923879 0.382684 -0
    outer loop
      vertex 35.9136 32.1942 9
      vertex 34.7664 34.9637 20
      vertex 35.9136 32.1942 11
    endloop
  endfacet
  facet normal 0.923879 0.382684 -0
    outer loop
      vertex 35.9136 32.1942 6
      vertex 34.7664 34.9637 20
      vertex 35.9136 32.1942 9
    endloop
  endfacet
  facet normal 0.923879 0.382684 -0
    outer loop
      vertex 35.9136 32.1942 4
      vertex 34.7664 34.9637 20
      vertex 35.9136 32.1942 6
    endloop
  endfacet
  facet normal 0.923879 0.382684 -0
    outer loop
      vertex 35.9136 32.1942 1
      vertex 34.7664 34.9637 20
      vertex 35.9136 32.1942 4
    endloop
  endfacet
  facet normal 0.923879 0.382684 0
    outer loop
      vertex 34.7664 34.9637 20
      vertex 35.9136 32.1942 1
      vertex 34.7664 34.9637 -20
    endloop
  endfacet
  facet normal 0.923879 0.382684 -0
    outer loop
      vertex 35.9136 32.1942 -1
      vertex 34.7664 34.9637 -20
      vertex 35.9136 32.1942 1
    endloop
  endfacet
  facet normal 0.923879 0.382684 -0
    outer loop
      vertex 35.9136 32.1942 -4
      vertex 34.7664 34.9637 -20
      vertex 35.9136 32.1942 -1
    endloop
  endfacet
  facet normal 0.923879 0.382684 -0
    outer loop
      vertex 35.9136 32.1942 -6
      vertex 34.7664 34.9637 -20
      vertex 35.9136 32.1942 -4
    endloop
  endfacet
  facet normal 0.923879 0.382684 -0
    outer loop
      vertex 35.9136 32.1942 -9
      vertex 34.7664 34.9637 -20
      vertex 35.9136 32.1942 -6
    endloop
  endfacet
  facet normal 0.923879 0.382684 -0
    outer loop
      vertex 35.9136 32.1942 -11
      vertex 34.7664 34.9637 -20
      vertex 35.9136 32.1942 -9
    endloop
  endfacet
  facet normal 0.923879 0.382684 -0
    outer loop
      vertex 35.9136 32.1942 -14
      vertex 34.7664 34.9637 -20
      vertex 35.9136 32.1942 -11
    endloop
  endfacet
  facet normal 0.92388 0.382683 -6.17818e-008
    outer loop
      vertex 48.1595 2.63002 -14
      vertex 34.7664 34.9637 -20
      vertex 35.9136 32.1942 -14
    endloop
  endfacet
  facet normal 0.92388 0.382683 4.32788e-008
    outer loop
      vertex 48.1595 2.63002 -14
      vertex 49.3066 -0.139519 -20
      vertex 34.7664 34.9637 -20
    endloop
  endfacet
  facet normal 0.92388 0.382684 0
    outer loop
      vertex 48.1595 2.63002 -11
      vertex 49.3066 -0.139519 -20
      vertex 48.1595 2.63002 -14
    endloop
  endfacet
  facet normal 0.92388 0.382683 0
    outer loop
      vertex 35.9136 32.1942 14
      vertex 36.2963 31.2703 16.5
      vertex 36.2963 31.2703 14
    endloop
  endfacet
  facet normal 0.92388 0.382683 0
    outer loop
      vertex 48.1595 2.63002 11
      vertex 47.7768 3.5539 9
      vertex 47.7768 3.5539 11
    endloop
  endfacet
  facet normal 0.92388 0.382683 0
    outer loop
      vertex 47.7768 3.5539 9
      vertex 48.1595 2.63002 11
      vertex 48.1595 2.63002 9
    endloop
  endfacet
  facet normal 0.92388 0.382683 0
    outer loop
      vertex 48.1595 2.63002 6
      vertex 47.7768 3.5539 4
      vertex 47.7768 3.5539 6
    endloop
  endfacet
  facet normal 0.92388 0.382683 0
    outer loop
      vertex 47.7768 3.5539 4
      vertex 48.1595 2.63002 6
      vertex 48.1595 2.63002 4
    endloop
  endfacet
  facet normal 0.92388 0.382683 0
    outer loop
      vertex 48.1595 2.63002 1
      vertex 47.7768 3.5539 -1
      vertex 47.7768 3.5539 1
    endloop
  endfacet
  facet normal 0.92388 0.382683 0
    outer loop
      vertex 47.7768 3.5539 -1
      vertex 48.1595 2.63002 1
      vertex 48.1595 2.63002 -1
    endloop
  endfacet
  facet normal 0.92388 0.382683 0
    outer loop
      vertex 48.1595 2.63002 -4
      vertex 47.7768 3.5539 -6
      vertex 47.7768 3.5539 -4
    endloop
  endfacet
  facet normal 0.92388 0.382683 0
    outer loop
      vertex 47.7768 3.5539 -6
      vertex 48.1595 2.63002 -4
      vertex 48.1595 2.63002 -6
    endloop
  endfacet
  facet normal 0.92388 0.382683 0
    outer loop
      vertex 48.1595 2.63002 -9
      vertex 47.7768 3.5539 -11
      vertex 47.7768 3.5539 -9
    endloop
  endfacet
  facet normal 0.92388 0.382683 0
    outer loop
      vertex 47.7768 3.5539 -11
      vertex 48.1595 2.63002 -9
      vertex 48.1595 2.63002 -11
    endloop
  endfacet
  facet normal 0 0 -1
    outer loop
      vertex 46.0595 -0.139519 -20
      vertex 34.7664 34.9637 -20
      vertex 49.3066 -0.139519 -20
    endloop
  endfacet
  facet normal 0 -0 -1
    outer loop
      vertex 34.7664 34.9637 -20
      vertex 46.0595 -0.139519 -20
      vertex 32.4703 32.6676 -20
    endloop
  endfacet
  facet normal -6.88344e-008 -1 0
    outer loop
      vertex 46.0595 -0.139519 -20
      vertex 49.3066 -0.139519 20
      vertex 46.0595 -0.139519 20
    endloop
  endfacet
  facet normal -6.88344e-008 -1 -0
    outer loop
      vertex 49.3066 -0.139519 20
      vertex 46.0595 -0.139519 -20
      vertex 49.3066 -0.139519 -20
    endloop
  endfacet
  facet normal -0.707107 0.707107 0
    outer loop
      vertex 32.4703 32.6676 -20
      vertex 34.7664 34.9637 20
      vertex 34.7664 34.9637 -20
    endloop
  endfacet
  facet normal -0.707107 0.707107 0
    outer loop
      vertex 34.7664 34.9637 20
      vertex 32.4703 32.6676 -20
      vertex 32.4703 32.6676 20
    endloop
  endfacet
  facet normal 0.382683 -0.92388 0
    outer loop
      vertex 33.5246 30.1222 -1
      vertex 36.2963 31.2703 1
      vertex 33.5246 30.1222 1
    endloop
  endfacet
  facet normal 0.382683 -0.92388 0
    outer loop
      vertex 36.2963 31.2703 1
      vertex 33.5246 30.1222 -1
      vertex 36.2963 31.2703 -1
    endloop
  endfacet
  facet normal -0.382683 0.92388 0
    outer loop
      vertex 47.7768 3.5539 -1
      vertex 45.0051 2.40585 1
      vertex 47.7768 3.5539 1
    endloop
  endfacet
  facet normal -0.382683 0.92388 0
    outer loop
      vertex 45.0051 2.40585 1
      vertex 47.7768 3.5539 -1
      vertex 45.0051 2.40585 -1
    endloop
  endfacet
  facet normal 0 0 -1
    outer loop
      vertex 45.3878 1.48197 4
      vertex 47.7768 3.5539 4
      vertex 48.1595 2.63002 4
    endloop
  endfacet
  facet normal 0 0 -1
    outer loop
      vertex 47.7768 3.5539 4
      vertex 45.3878 1.48197 4
      vertex 45.0051 2.40585 4
    endloop
  endfacet
  facet normal 0 0 -1
    outer loop
      vertex 33.5246 30.1222 4
      vertex 35.9136 32.1942 4
      vertex 36.2963 31.2703 4
    endloop
  endfacet
  facet normal 0 0 -1
    outer loop
      vertex 35.9136 32.1942 4
      vertex 33.5246 30.1222 4
      vertex 33.1419 31.0461 4
    endloop
  endfacet
  facet normal 0.382683 -0.92388 0
    outer loop
      vertex 33.1419 31.0461 1
      vertex 35.9136 32.1942 4
      vertex 33.1419 31.0461 4
    endloop
  endfacet
  facet normal 0.382683 -0.92388 0
    outer loop
      vertex 35.9136 32.1942 4
      vertex 33.1419 31.0461 1
      vertex 35.9136 32.1942 1
    endloop
  endfacet
  facet normal 0 0 1
    outer loop
      vertex 47.7768 3.5539 1
      vertex 45.3878 1.48197 1
      vertex 48.1595 2.63002 1
    endloop
  endfacet
  facet normal 0 -0 1
    outer loop
      vertex 45.3878 1.48197 1
      vertex 47.7768 3.5539 1
      vertex 45.0051 2.40585 1
    endloop
  endfacet
  facet normal 0 0 1
    outer loop
      vertex 35.9136 32.1942 1
      vertex 33.5246 30.1222 1
      vertex 36.2963 31.2703 1
    endloop
  endfacet
  facet normal 0 -0 1
    outer loop
      vertex 33.5246 30.1222 1
      vertex 35.9136 32.1942 1
      vertex 33.1419 31.0461 1
    endloop
  endfacet
  facet normal -0.382683 0.92388 0
    outer loop
      vertex 48.1595 2.63002 1
      vertex 45.3878 1.48197 4
      vertex 48.1595 2.63002 4
    endloop
  endfacet
  facet normal -0.382683 0.92388 0
    outer loop
      vertex 45.3878 1.48197 4
      vertex 48.1595 2.63002 1
      vertex 45.3878 1.48197 1
    endloop
  endfacet
  facet normal 0.382683 -0.92388 0
    outer loop
      vertex 33.5246 30.1222 4
      vertex 36.2963 31.2703 6
      vertex 33.5246 30.1222 6
    endloop
  endfacet
  facet normal 0.382683 -0.92388 0
    outer loop
      vertex 36.2963 31.2703 6
      vertex 33.5246 30.1222 4
      vertex 36.2963 31.2703 4
    endloop
  endfacet
  facet normal -0.382683 0.92388 0
    outer loop
      vertex 47.7768 3.5539 4
      vertex 45.0051 2.40585 6
      vertex 47.7768 3.5539 6
    endloop
  endfacet
  facet normal -0.382683 0.92388 0
    outer loop
      vertex 45.0051 2.40585 6
      vertex 47.7768 3.5539 4
      vertex 45.0051 2.40585 4
    endloop
  endfacet
  facet normal 0 0 -1
    outer loop
      vertex 45.3878 1.48197 9
      vertex 47.7768 3.5539 9
      vertex 48.1595 2.63002 9
    endloop
  endfacet
  facet normal 0 0 -1
    outer loop
      vertex 47.7768 3.5539 9
      vertex 45.3878 1.48197 9
      vertex 45.0051 2.40585 9
    endloop
  endfacet
  facet normal 0 0 -1
    outer loop
      vertex 33.5246 30.1222 9
      vertex 35.9136 32.1942 9
      vertex 36.2963 31.2703 9
    endloop
  endfacet
  facet normal 0 0 -1
    outer loop
      vertex 35.9136 32.1942 9
      vertex 33.5246 30.1222 9
      vertex 33.1419 31.0461 9
    endloop
  endfacet
  facet normal 0.382683 -0.92388 0
    outer loop
      vertex 33.1419 31.0461 6
      vertex 35.9136 32.1942 9
      vertex 33.1419 31.0461 9
    endloop
  endfacet
  facet normal 0.382683 -0.92388 0
    outer loop
      vertex 35.9136 32.1942 9
      vertex 33.1419 31.0461 6
      vertex 35.9136 32.1942 6
    endloop
  endfacet
  facet normal 0 0 1
    outer loop
      vertex 47.7768 3.5539 6
      vertex 45.3878 1.48197 6
      vertex 48.1595 2.63002 6
    endloop
  endfacet
  facet normal 0 -0 1
    outer loop
      vertex 45.3878 1.48197 6
      vertex 47.7768 3.5539 6
      vertex 45.0051 2.40585 6
    endloop
  endfacet
  facet normal 0 0 1
    outer loop
      vertex 35.9136 32.1942 6
      vertex 33.5246 30.1222 6
      vertex 36.2963 31.2703 6
    endloop
  endfacet
  facet normal 0 -0 1
    outer loop
      vertex 33.5246 30.1222 6
      vertex 35.9136 32.1942 6
      vertex 33.1419 31.0461 6
    endloop
  endfacet
  facet normal -0.382683 0.92388 0
    outer loop
      vertex 48.1595 2.63002 6
      vertex 45.3878 1.48197 9
      vertex 48.1595 2.63002 9
    endloop
  endfacet
  facet normal -0.382683 0.92388 0
    outer loop
      vertex 45.3878 1.48197 9
      vertex 48.1595 2.63002 6
      vertex 45.3878 1.48197 6
    endloop
  endfacet
  facet normal 0.382683 -0.92388 0
    outer loop
      vertex 33.5246 30.1222 9
      vertex 36.2963 31.2703 11
      vertex 33.5246 30.1222 11
    endloop
  endfacet
  facet normal 0.382683 -0.92388 0
    outer loop
      vertex 36.2963 31.2703 11
      vertex 33.5246 30.1222 9
      vertex 36.2963 31.2703 9
    endloop
  endfacet
  facet normal -0.382683 0.92388 0
    outer loop
      vertex 47.7768 3.5539 9
      vertex 45.0051 2.40585 11
      vertex 47.7768 3.5539 11
    endloop
  endfacet
  facet normal -0.382683 0.92388 0
    outer loop
      vertex 45.0051 2.40585 11
      vertex 47.7768 3.5539 9
      vertex 45.0051 2.40585 9
    endloop
  endfacet
  facet normal 0 0 -1
    outer loop
      vertex 45.3878 1.48197 14
      vertex 47.7768 3.5539 14
      vertex 48.1595 2.63002 14
    endloop
  endfacet
  facet normal 0 0 -1
    outer loop
      vertex 47.7768 3.5539 14
      vertex 45.3878 1.48197 14
      vertex 45.0051 2.40585 14
    endloop
  endfacet
  facet normal 0 0 -1
    outer loop
      vertex 33.5246 30.1222 14
      vertex 35.9136 32.1942 14
      vertex 36.2963 31.2703 14
    endloop
  endfacet
  facet normal 0 0 -1
    outer loop
      vertex 35.9136 32.1942 14
      vertex 33.5246 30.1222 14
      vertex 33.1419 31.0461 14
    endloop
  endfacet
  facet normal 0 0 1
    outer loop
      vertex 47.7768 3.5539 11
      vertex 45.3878 1.48197 11
      vertex 48.1595 2.63002 11
    endloop
  endfacet
  facet normal 0 -0 1
    outer loop
      vertex 45.3878 1.48197 11
      vertex 47.7768 3.5539 11
      vertex 45.0051 2.40585 11
    endloop
  endfacet
  facet normal 0 0 1
    outer loop
      vertex 35.9136 32.1942 11
      vertex 33.5246 30.1222 11
      vertex 36.2963 31.2703 11
    endloop
  endfacet
  facet normal 0 -0 1
    outer loop
      vertex 33.5246 30.1222 11
      vertex 35.9136 32.1942 11
      vertex 33.1419 31.0461 11
    endloop
  endfacet
  facet normal -0.382683 0.92388 0
    outer loop
      vertex 48.1595 2.63002 11
      vertex 45.3878 1.48197 14
      vertex 48.1595 2.63002 14
    endloop
  endfacet
  facet normal -0.382683 0.92388 0
    outer loop
      vertex 45.3878 1.48197 14
      vertex 48.1595 2.63002 11
      vertex 45.3878 1.48197 11
    endloop
  endfacet
  facet normal 0.382683 -0.92388 0
    outer loop
      vertex 33.1419 31.0461 11
      vertex 35.9136 32.1942 14
      vertex 33.1419 31.0461 14
    endloop
  endfacet
  facet normal 0.382683 -0.92388 0
    outer loop
      vertex 35.9136 32.1942 14
      vertex 33.1419 31.0461 11
      vertex 35.9136 32.1942 11
    endloop
  endfacet
  facet normal 0 0 -1
    outer loop
      vertex 45.0051 2.40585 16.5
      vertex 36.2963 31.2703 16.5
      vertex 47.7768 3.5539 16.5
    endloop
  endfacet
  facet normal 0 -0 -1
    outer loop
      vertex 36.2963 31.2703 16.5
      vertex 45.0051 2.40585 16.5
      vertex 33.5246 30.1222 16.5
    endloop
  endfacet
  facet normal -0.382683 0.92388 0
    outer loop
      vertex 47.7768 3.5539 14
      vertex 45.0051 2.40585 16.5
      vertex 47.7768 3.5539 16.5
    endloop
  endfacet
  facet normal -0.382683 0.92388 0
    outer loop
      vertex 45.0051 2.40585 16.5
      vertex 47.7768 3.5539 14
      vertex 45.0051 2.40585 14
    endloop
  endfacet
  facet normal 0.382683 -0.92388 0
    outer loop
      vertex 33.5246 30.1222 14
      vertex 36.2963 31.2703 16.5
      vertex 33.5246 30.1222 16.5
    endloop
  endfacet
  facet normal 0.382683 -0.92388 0
    outer loop
      vertex 36.2963 31.2703 16.5
      vertex 33.5246 30.1222 14
      vertex 36.2963 31.2703 14
    endloop
  endfacet
  facet normal 0 0 -1
    outer loop
      vertex 33.5246 30.1222 -1
      vertex 35.9136 32.1942 -1
      vertex 36.2963 31.2703 -1
    endloop
  endfacet
  facet normal 0 0 -1
    outer loop
      vertex 35.9136 32.1942 -1
      vertex 33.5246 30.1222 -1
      vertex 33.1419 31.0461 -1
    endloop
  endfacet
  facet normal 0 0 -1
    outer loop
      vertex 45.3878 1.48197 -1
      vertex 47.7768 3.5539 -1
      vertex 48.1595 2.63002 -1
    endloop
  endfacet
  facet normal 0 0 -1
    outer loop
      vertex 47.7768 3.5539 -1
      vertex 45.3878 1.48197 -1
      vertex 45.0051 2.40585 -1
    endloop
  endfacet
  facet normal 0.382683 -0.92388 0
    outer loop
      vertex 33.1419 31.0461 -4
      vertex 35.9136 32.1942 -1
      vertex 33.1419 31.0461 -1
    endloop
  endfacet
  facet normal 0.382683 -0.92388 0
    outer loop
      vertex 35.9136 32.1942 -1
      vertex 33.1419 31.0461 -4
      vertex 35.9136 32.1942 -4
    endloop
  endfacet
  facet normal 0 0 1
    outer loop
      vertex 35.9136 32.1942 -4
      vertex 33.5246 30.1222 -4
      vertex 36.2963 31.2703 -4
    endloop
  endfacet
  facet normal 0 -0 1
    outer loop
      vertex 33.5246 30.1222 -4
      vertex 35.9136 32.1942 -4
      vertex 33.1419 31.0461 -4
    endloop
  endfacet
  facet normal 0 0 1
    outer loop
      vertex 47.7768 3.5539 -4
      vertex 45.3878 1.48197 -4
      vertex 48.1595 2.63002 -4
    endloop
  endfacet
  facet normal 0 -0 1
    outer loop
      vertex 45.3878 1.48197 -4
      vertex 47.7768 3.5539 -4
      vertex 45.0051 2.40585 -4
    endloop
  endfacet
  facet normal -0.382683 0.92388 0
    outer loop
      vertex 48.1595 2.63002 -4
      vertex 45.3878 1.48197 -1
      vertex 48.1595 2.63002 -1
    endloop
  endfacet
  facet normal -0.382683 0.92388 0
    outer loop
      vertex 45.3878 1.48197 -1
      vertex 48.1595 2.63002 -4
      vertex 45.3878 1.48197 -4
    endloop
  endfacet
  facet normal 0.382683 -0.92388 0
    outer loop
      vertex 33.5246 30.1222 -6
      vertex 36.2963 31.2703 -4
      vertex 33.5246 30.1222 -4
    endloop
  endfacet
  facet normal 0.382683 -0.92388 0
    outer loop
      vertex 36.2963 31.2703 -4
      vertex 33.5246 30.1222 -6
      vertex 36.2963 31.2703 -6
    endloop
  endfacet
  facet normal -0.382683 0.92388 0
    outer loop
      vertex 47.7768 3.5539 -6
      vertex 45.0051 2.40585 -4
      vertex 47.7768 3.5539 -4
    endloop
  endfacet
  facet normal -0.382683 0.92388 0
    outer loop
      vertex 45.0051 2.40585 -4
      vertex 47.7768 3.5539 -6
      vertex 45.0051 2.40585 -6
    endloop
  endfacet
  facet normal 0 0 -1
    outer loop
      vertex 45.3878 1.48197 -6
      vertex 47.7768 3.5539 -6
      vertex 48.1595 2.63002 -6
    endloop
  endfacet
  facet normal 0 0 -1
    outer loop
      vertex 47.7768 3.5539 -6
      vertex 45.3878 1.48197 -6
      vertex 45.0051 2.40585 -6
    endloop
  endfacet
  facet normal 0 0 -1
    outer loop
      vertex 33.5246 30.1222 -6
      vertex 35.9136 32.1942 -6
      vertex 36.2963 31.2703 -6
    endloop
  endfacet
  facet normal 0 0 -1
    outer loop
      vertex 35.9136 32.1942 -6
      vertex 33.5246 30.1222 -6
      vertex 33.1419 31.0461 -6
    endloop
  endfacet
  facet normal 0.382683 -0.92388 0
    outer loop
      vertex 33.1419 31.0461 -9
      vertex 35.9136 32.1942 -6
      vertex 33.1419 31.0461 -6
    endloop
  endfacet
  facet normal 0.382683 -0.92388 0
    outer loop
      vertex 35.9136 32.1942 -6
      vertex 33.1419 31.0461 -9
      vertex 35.9136 32.1942 -9
    endloop
  endfacet
  facet normal 0 0 1
    outer loop
      vertex 35.9136 32.1942 -9
      vertex 33.5246 30.1222 -9
      vertex 36.2963 31.2703 -9
    endloop
  endfacet
  facet normal 0 -0 1
    outer loop
      vertex 33.5246 30.1222 -9
      vertex 35.9136 32.1942 -9
      vertex 33.1419 31.0461 -9
    endloop
  endfacet
  facet normal 0 0 1
    outer loop
      vertex 47.7768 3.5539 -9
      vertex 45.3878 1.48197 -9
      vertex 48.1595 2.63002 -9
    endloop
  endfacet
  facet normal 0 -0 1
    outer loop
      vertex 45.3878 1.48197 -9
      vertex 47.7768 3.5539 -9
      vertex 45.0051 2.40585 -9
    endloop
  endfacet
  facet normal -0.382683 0.92388 0
    outer loop
      vertex 48.1595 2.63002 -9
      vertex 45.3878 1.48197 -6
      vertex 48.1595 2.63002 -6
    endloop
  endfacet
  facet normal -0.382683 0.92388 0
    outer loop
      vertex 45.3878 1.48197 -6
      vertex 48.1595 2.63002 -9
      vertex 45.3878 1.48197 -9
    endloop
  endfacet
  facet normal 0.382683 -0.92388 0
    outer loop
      vertex 33.5246 30.1222 -11
      vertex 36.2963 31.2703 -9
      vertex 33.5246 30.1222 -9
    endloop
  endfacet
  facet normal 0.382683 -0.92388 0
    outer loop
      vertex 36.2963 31.2703 -9
      vertex 33.5246 30.1222 -11
      vertex 36.2963 31.2703 -11
    endloop
  endfacet
  facet normal -0.382683 0.92388 0
    outer loop
      vertex 47.7768 3.5539 -11
      vertex 45.0051 2.40585 -9
      vertex 47.7768 3.5539 -9
    endloop
  endfacet
  facet normal -0.382683 0.92388 0
    outer loop
      vertex 45.0051 2.40585 -9
      vertex 47.7768 3.5539 -11
      vertex 45.0051 2.40585 -11
    endloop
  endfacet
  facet normal 0 0 -1
    outer loop
      vertex 45.3878 1.48197 -11
      vertex 47.7768 3.5539 -11
      vertex 48.1595 2.63002 -11
    endloop
  endfacet
  facet normal 0 0 -1
    outer loop
      vertex 47.7768 3.5539 -11
      vertex 45.3878 1.48197 -11
      vertex 45.0051 2.40585 -11
    endloop
  endfacet
  facet normal 0 0 -1
    outer loop
      vertex 33.5246 30.1222 -11
      vertex 35.9136 32.1942 -11
      vertex 36.2963 31.2703 -11
    endloop
  endfacet
  facet normal 0 0 -1
    outer loop
      vertex 35.9136 32.1942 -11
      vertex 33.5246 30.1222 -11
      vertex 33.1419 31.0461 -11
    endloop
  endfacet
  facet normal 0.382683 -0.92388 0
    outer loop
      vertex 33.1419 31.0461 -14
      vertex 35.9136 32.1942 -11
      vertex 33.1419 31.0461 -11
    endloop
  endfacet
  facet normal 0.382683 -0.92388 0
    outer loop
      vertex 35.9136 32.1942 -11
      vertex 33.1419 31.0461 -14
      vertex 35.9136 32.1942 -14
    endloop
  endfacet
  facet normal 0 0 1
    outer loop
      vertex 35.9136 32.1942 -14
      vertex 45.3878 1.48197 -14
      vertex 48.1595 2.63002 -14
    endloop
  endfacet
  facet normal 0 0 1
    outer loop
      vertex 45.3878 1.48197 -14
      vertex 35.9136 32.1942 -14
      vertex 33.1419 31.0461 -14
    endloop
  endfacet
  facet normal -0.382683 0.92388 0
    outer loop
      vertex 48.1595 2.63002 -14
      vertex 45.3878 1.48197 -11
      vertex 48.1595 2.63002 -11
    endloop
  endfacet
  facet normal -0.382683 0.92388 0
    outer loop
      vertex 45.3878 1.48197 -11
      vertex 48.1595 2.63002 -14
      vertex 45.3878 1.48197 -14
    endloop
  endfacet
endsolid OpenSCAD_Model
